Coordinates
version=1
nRows=10
nColumns=40
inDegrees=yes

Units are S.I. units (second, meters, Newtons, ...)
Angles are in degrees.

endheader
time	pelvis_tilt	pelvis_list	pelvis_rotation	pelvis_tx	pelvis_ty	pelvis_tz	hip_flexion_r	hip_adduction_r	hip_rotation_r	knee_angle_r	knee_angle_r_beta	ankle_angle_r	subtalar_angle_r	mtp_angle_r	hip_flexion_l	hip_adduction_l	hip_rotation_l	knee_angle_l	knee_angle_l_beta	ankle_angle_l	subtalar_angle_l	mtp_angle_l	lumbar_extension	lumbar_bending	lumbar_rotation	arm_flex_r	arm_add_r	arm_rot_r	elbow_flex_r	pro_sup_r	wrist_flex_r	wrist_dev_r	arm_flex_l	arm_add_l	arm_rot_l	elbow_flex_l	pro_sup_l	wrist_flex_l	wrist_dev_l
     16.63500000	     -4.17432954	     -3.32148982	     -1.52172177	      0.86444595	      0.92707620	      0.42360859	     26.04444375	     -0.54345247	    -12.88988495	     11.29498625	     11.29498625	      1.89101685	      1.35481122	      5.42041091	      1.26802376	     -2.91188457	    -10.00885191	     13.65402036	     13.65402036	     17.24638768	     -8.47250814	     -1.08423917	     -8.75779940	      6.42289553	      2.95198953	    -14.57075485	    -10.96655180	    -12.22800114	     21.75252425	     46.58047892	      0.00000000	      0.00000000	     25.66178389	    -13.45306265	     -8.93832027	     75.01957848	     47.56981893	      0.00000000	      0.00000000
     16.64735714	     -4.35225105	     -3.27406342	     -1.67224303	      0.86486826	      0.92565649	      0.42535054	     25.72545969	     -0.29924189	    -13.16117285	     10.23548027	     10.23548027	      1.90390741	      2.21199294	      6.02789882	      0.84386923	     -2.93478261	    -10.08748989	     13.58179082	     13.58179082	     17.58860557	     -8.56584266	     -1.11748649	     -8.50632329	      6.34955286	      3.02112690	    -14.12458974	    -11.05825515	    -12.22833544	     21.78645147	     46.58822303	      0.00000000	      0.00000000	     25.63769074	    -13.43027379	     -8.89063279	     75.30038582	     47.57442826	      0.00000000	      0.00000000
     16.65971429	     -4.36523246	     -3.44002580	     -1.72575306	      0.86562834	      0.92464105	      0.42720591	     25.25870902	      0.02486368	    -13.82416025	      9.93508333	      9.93508333	      2.13081697	      3.09986425	      6.56556993	      0.19392649	     -3.19858134	    -10.03886611	     13.47457268	     13.47457268	     18.12872214	     -8.51909695	     -0.73869371	     -8.42088101	      6.55325166	      2.88360330	    -13.39539517	    -11.19474682	    -12.26463579	     21.45340589	     46.63132236	      0.00000000	      0.00000000	     25.20587192	    -13.62592740	     -8.84487123	     75.84242210	     47.58943124	      0.00000000	      0.00000000
     16.67207143	     -4.48985701	     -3.60837834	     -1.81781186	      0.86632691	      0.92351645	      0.42929108	     25.03896148	      0.35247517	    -13.99900983	     10.30993539	     10.30993539	      2.13790228	      2.93489720	      6.41473045	     -0.24899412	     -3.49612016	    -10.00690212	     13.51789892	     13.51789892	     18.47884603	     -8.66419157	     -0.74486004	     -8.20890413	      6.74899972	      3.07714565	    -12.75107153	    -11.26774188	    -12.25952573	     21.62425556	     46.63180184	      0.00000000	      0.00000000	     25.00949611	    -13.46640762	     -8.75690897	     75.79938578	     47.58243229	      0.00000000	      0.00000000
     16.68442857	     -4.43541415	     -3.85223129	     -1.82411962	      0.86720951	      0.92261306	      0.43143520	     24.79575098	      0.64394480	    -14.19106242	     11.42484183	     11.42484183	      2.21857368	      2.29959151	      5.68398324	     -0.78486263	     -3.90997262	     -9.95176707	     13.77244207	     13.77244207	     18.91795987	     -8.82067507	     -0.56395117	     -8.18752470	      7.04229823	      3.03978787	    -11.99035120	    -11.48297314	    -12.29120866	     21.71450493	     46.64372046	      0.00000000	      0.00000000	     24.66267793	    -13.46049943	     -8.64625197	     75.62434793	     47.57223616	      0.00000000	      0.00000000
     16.69678571	     -4.51101609	     -3.85930409	     -1.79900736	      0.86817659	      0.92140787	      0.43372738	     24.62557093	      0.77436975	    -13.69643249	     12.43018492	     12.43018492	      0.36869941	      0.26424991	     -0.43505835	     -0.87173191	     -4.17830533	    -10.00438827	     14.71462160	     14.71462160	     20.57366422	     -8.26186698	      2.08418000	     -7.91896412	      7.02397129	      2.55075467	    -10.17443068	    -11.51663195	    -12.63853914	     20.37414860	     46.80625494	      0.00000000	      0.00000000	     23.81336642	    -13.93927207	     -8.46878473	     75.75151829	     47.58631597	      0.00000000	      0.00000000
     16.70914286	     -4.37580013	     -4.10191639	     -1.77068487	      0.86936569	      0.92095028	      0.43602832	     24.11671734	      1.04727484	    -13.86359097	     13.52893898	     13.52893898	      0.49978925	     -0.16266501	     -0.80334256	     -1.40899539	     -4.62863758	     -9.91437063	     15.13272063	     15.13272063	     20.78290166	     -8.49499170	      2.04871274	     -7.97401766	      7.32217282	      2.76804732	     -9.18115903	    -11.54978474	    -12.64259110	     20.73824553	     46.80284277	      0.00000000	      0.00000000	     23.25896682	    -13.54541233	     -8.27837188	     75.43504263	     47.56530404	      0.00000000	      0.00000000
     16.72150000	     -4.37169359	     -4.10478185	     -1.64639190	      0.87029817	      0.91993707	      0.43827879	     24.30579370	      0.96207956	    -13.64651038	     15.61344860	     15.61344860	      0.82495446	     -1.49671807	     -1.91871408	     -1.30290099	     -4.93471463	     -9.73186227	     16.45258209	     16.45258209	     21.17925310	     -8.82883036	      2.01528738	     -7.82524910	      7.33561606	      2.48365462	     -8.04739231	    -11.65943287	    -12.75679020	     21.11485655	     46.81637213	      0.00000000	      0.00000000	     22.79059877	    -13.75313942	     -8.16196066	     74.60826533	     47.54484293	      0.00000000	      0.00000000
     16.73385714	     -4.23238269	     -4.25937190	     -1.48746956	      0.87142094	      0.91946937	      0.44063479	     23.99886906	      1.12758733	    -13.53410333	     16.94923973	     16.94923973	      1.05902619	     -2.50221088	     -2.70367836	     -1.21958521	     -5.43457516	     -9.50034132	     18.00512079	     18.00512079	     21.46925587	     -9.34764179	      1.95042755	     -7.83238377	      7.48104758	      2.37669709	     -6.80739360	    -11.75903715	    -12.84518224	     21.46083609	     46.82866095	      0.00000000	      0.00000000	     22.22842248	    -13.71626221	     -7.93160883	     73.78029245	     47.51533188	      0.00000000	      0.00000000
     16.74621429	     -4.13968350	     -4.34306402	     -1.31065042	      0.87242976	      0.91928312	      0.44283171	     23.63368291	      1.25429710	    -13.31540787	     17.91340910	     17.91340910	      1.33162605	     -3.31744541	     -3.36208354	     -0.86027589	     -5.88307786	     -9.20488465	     19.92188683	     19.92188683	     21.49191904	     -9.94800797	      1.81117526	     -7.78729922	      7.69773330	      2.31715827	     -5.39535571	    -11.77647639	    -12.93383233	     21.80267269	     46.84295956	      0.00000000	      0.00000000	     21.45899653	    -13.49322759	     -7.57939969	     72.69552041	     47.47231440	      0.00000000	      0.00000000
